<svg id="Layer_1" data-name="Layer 1" xmlns="http://www.w3.org/2000/svg" viewBox="0 0 154.84 154.84"><defs><style>.cls-1{fill:#fff;}</style></defs><title>Twitter-icon-circle-logo</title><path class="cls-1" d="M297.63,343.52a77.43,77.43,0,1,0,77.43,77.42,77.51,77.51,0,0,0-77.43-77.42Zm34.55,59.71c0,.76.05,1.54.05,2.32,0,23.54-17.92,50.68-50.71,50.68a50.29,50.29,0,0,1-27.31-8,37.13,37.13,0,0,0,4.24.25,35.7,35.7,0,0,0,22.14-7.63A17.84,17.84,0,0,1,264,428.47a16.7,16.7,0,0,0,3.35.32,17.75,17.75,0,0,0,4.69-.62,17.82,17.82,0,0,1-14.3-17.46.86.86,0,0,1,0-.23,17.6,17.6,0,0,0,8.07,2.22,17.82,17.82,0,0,1-5.53-23.78A50.62,50.62,0,0,0,297,407.54a17.57,17.57,0,0,1-.46-4.07,17.83,17.83,0,0,1,30.82-12.2A35.08,35.08,0,0,0,338.67,387a17.93,17.93,0,0,1-7.84,9.87,35.61,35.61,0,0,0,10.23-2.8,36.33,36.33,0,0,1-8.88,9.21Zm0,0" transform="translate(-220.22 -343.52)"/></svg>